HIERARCHY
ROOT Hips
{
	OFFSET 0.000000 0.000000 0.000000
	CHANNELS 6 Xposition Yposition Zposition Xrotation Yrotation Zrotation
	JOINT LeftUpLeg_virtual
	{
		OFFSET 0.000000 0.000000 0.000000
		CHANNELS 3 Xrotation Yrotation Zrotation
		JOINT LeftUpLeg
		{
			OFFSET 13.026900 -6.336304 -1.092800
			CHANNELS 3 Xrotation Yrotation Zrotation
			JOINT LeftLeg
			{
				OFFSET 0.524474 -46.096886 9.782700
				CHANNELS 3 Xrotation Yrotation Zrotation
				JOINT LeftFoot
				{
					OFFSET -0.524474 -53.427422 -12.948200
					CHANNELS 3 Xrotation Yrotation Zrotation
					JOINT LeftToeBase
					{
						OFFSET 0.192200 -14.009700 16.364100
						CHANNELS 3 Xrotation Yrotation Zrotation
						JOINT LeftToe_End
						{
							OFFSET -1.784700 -0.561700 9.474800
							CHANNELS 3 Xrotation Yrotation Zrotation
							End Site
							{
								OFFSET 0 0 0
							}
						}
					}
				}
			}
		}
	}
	JOINT RightUpLeg_virtual
	{
		OFFSET 0.000000 0.000000 0.000000
		CHANNELS 3 Xrotation Yrotation Zrotation
		JOINT RightUpLeg
		{
			OFFSET -12.883000 -6.336304 -1.092800
			CHANNELS 3 Xrotation Yrotation Zrotation
			JOINT RightLeg
			{
				OFFSET -0.524587 -46.096825 9.782800
				CHANNELS 3 Xrotation Yrotation Zrotation
				JOINT RightFoot
				{
					OFFSET 0.524587 -53.427383 -12.948300
					CHANNELS 3 Xrotation Yrotation Zrotation
					JOINT RightToeBase
					{
						OFFSET -0.192200 -14.009700 16.364100
						CHANNELS 3 Xrotation Yrotation Zrotation
						JOINT RightToe_End
						{
							OFFSET 1.784700 -0.561700 9.474800
							CHANNELS 3 Xrotation Yrotation Zrotation
							End Site
							{
								OFFSET 0 0 0
							}
						}
					}
				}
			}
		}
	}
	JOINT Spine_virtual
	{
		OFFSET 0.000000 0.000000 0.000000
		CHANNELS 3 Xrotation Yrotation Zrotation
		JOINT Spine
		{
			OFFSET 0.072000 7.257294 -0.789700
			CHANNELS 3 Xrotation Yrotation Zrotation
			JOINT Spine1
			{
				OFFSET 0.000000 12.508769 -0.658067
				CHANNELS 3 Xrotation Yrotation Zrotation
				JOINT Spine1_split
				{
					OFFSET 0.000000 12.508769 -0.658067
					CHANNELS 3 Xrotation Yrotation Zrotation
					JOINT Spine2
					{
						OFFSET 0.000000 12.508769 -0.658067
						CHANNELS 3 Xrotation Yrotation Zrotation
						JOINT Neck_virtual
						{
							OFFSET 0.000000 0.000000 0.000000
							CHANNELS 3 Xrotation Yrotation Zrotation
							JOINT Neck
							{
								OFFSET 0.000000 14.033295 7.520400
								CHANNELS 3 Xrotation Yrotation Zrotation
								JOINT Head
								{
									OFFSET 0.000000 8.198502 5.703100
									CHANNELS 3 Xrotation Yrotation Zrotation
									JOINT HeadTop_End
									{
										OFFSET 0.000000 17.760803 13.332701
										CHANNELS 3 Xrotation Yrotation Zrotation
										End Site
										{
											OFFSET 0 0 0
										}
									}
								}
							}
						}
						JOINT LeftShoulder_virtual
						{
							OFFSET 0.000000 0.000000 0.000000
							CHANNELS 3 Xrotation Yrotation Zrotation
							JOINT LeftShoulder
							{
								OFFSET 6.292450 5.785301 -0.669000
								CHANNELS 3 Xrotation Yrotation Zrotation
								JOINT LeftShoulder_split
								{
									OFFSET 6.292450 5.785301 -0.669000
									CHANNELS 3 Xrotation Yrotation Zrotation
									JOINT LeftArm
									{
										OFFSET 13.907140 -6.093903 1.965100
										CHANNELS 3 Xrotation Yrotation Zrotation
										JOINT LeftForeArm
										{
											OFFSET 34.140198 0.000000 0.000000
											CHANNELS 3 Xrotation Yrotation Zrotation
											JOINT LeftHand
											{
												OFFSET 40.960209 0.000000 0.000000
												CHANNELS 3 Xrotation Yrotation Zrotation
												End Site
												{
													OFFSET 0 0 0
												}
											}
										}
									}
								}
							}
						}
						JOINT RightShoulder_virtual
						{
							OFFSET 0.000000 0.000000 0.000000
							CHANNELS 3 Xrotation Yrotation Zrotation
							JOINT RightShoulder
							{
								OFFSET -6.292450 5.785301 -0.669000
								CHANNELS 3 Xrotation Yrotation Zrotation
								JOINT RightShoulder_split
								{
									OFFSET -6.292450 5.785301 -0.669000
									CHANNELS 3 Xrotation Yrotation Zrotation
									JOINT RightArm
									{
										OFFSET -13.907140 -6.093903 1.965100
										CHANNELS 3 Xrotation Yrotation Zrotation
										JOINT RightForeArm
										{
											OFFSET -34.140198 0.000000 0.000000
											CHANNELS 3 Xrotation Yrotation Zrotation
											JOINT RightHand
											{
												OFFSET -40.960209 0.000000 0.000000
												CHANNELS 3 Xrotation Yrotation Zrotation
												End Site
												{
													OFFSET 0 0 0
												}
											}
										}
									}
								}
							}
						}
					}
				}
			}
		}
	}
}
MOTION
Frames: 8
Frame Time: 0.03333333
-3.726086 98.539566 -5.101765 0.000000 0.000000 0.000000 26.624965 -45.090150 9.597183 -80.191421 -1.270777 10.333932 55.367955 -2.176590 -1.395379 13.826623 -0.806642 -5.343604 -4.917027 0.879832 1.181637 0.000000 0.000000 0.000000 24.517796 -46.587918 8.748547 -32.536730 -14.863308 -19.747100 48.335282 -13.102516 6.974202 -13.613571 -10.174615 23.715141 -2.487576 0.135083 3.420098 0.000000 0.000000 0.000000 29.143929 -46.874058 11.203268 0.260966 7.413539 -1.357034 -1.791723 2.361701 0.445219 0.837761 -0.933061 0.346311 0.000000 0.000000 0.000000 0.309922 0.086534 1.218102 10.756376 6.221857 -7.414236 -2.758044 19.678615 11.366166 0.000000 0.000000 0.000000 -2.551106 1.041919 0.916228 3.295639 2.839338 -9.394482 1.094564 4.446612 1.556300 -51.777868 -30.988206 -46.629964 0.853737 -70.159491 1.994423 0.000000 0.000000 0.000000 -2.300780 0.065519 0.877300 -12.759782 -1.688147 -2.890455 -8.352194 -1.082957 -1.809903 -106.770535 37.353007 125.862396 -4.575791 24.497650 2.370063 0.000000 0.000000 0.000000 
-2.978792 99.199036 -9.275959 0.000000 0.000000 0.000000 26.843128 -43.766397 8.617041 -78.037206 -1.381783 9.097640 57.314276 -2.282385 -1.042448 10.652505 -1.191646 -4.999474 -5.377651 0.431773 2.005754 0.000000 0.000000 0.000000 24.921229 -46.439187 8.366928 -32.656815 -16.856944 -18.032784 46.659539 -12.479352 6.628879 -14.748069 -9.508710 23.836988 -0.988765 0.629812 2.555543 0.000000 0.000000 0.000000 30.612095 -47.062831 11.580904 0.030489 7.631673 -1.068467 -1.800384 2.510510 0.393564 1.621604 -0.738538 0.501228 0.000000 0.000000 0.000000 0.373785 0.194803 1.200945 10.813346 5.955385 -7.172898 -2.624101 19.685502 11.259763 0.000000 0.000000 0.000000 -2.347135 1.123270 0.848273 3.193592 2.479782 -9.617216 1.511351 4.684630 1.157193 -51.341344 -31.132757 -46.415537 0.910174 -69.651517 1.995459 0.000000 0.000000 0.000000 -2.081667 0.275734 0.940095 -12.781876 -1.747088 -2.584184 -8.623032 -0.800894 -1.743996 -107.036052 37.914045 126.172910 -4.307299 23.231003 2.320292 0.000000 0.000000 0.000000 
-1.938903 99.839752 -15.244396 0.000000 0.000000 0.000000 27.254847 -44.196091 8.058220 -74.761557 -0.945030 7.263966 59.205009 -3.190820 -0.022946 6.902423 -2.990311 -5.147166 -6.485518 -0.022120 2.711632 0.000000 0.000000 0.000000 25.759459 -47.942607 8.575848 -34.624578 -19.360644 -16.502973 45.502573 -11.465464 6.487700 -13.927225 -7.859906 24.560816 -3.056178 1.004052 1.072492 0.000000 0.000000 0.000000 32.448508 -48.284984 12.323574 0.005160 8.206851 -0.569891 -1.761565 2.998724 0.401929 1.952272 -0.607523 0.642972 0.000000 0.000000 0.000000 0.458937 0.612979 1.183400 10.749761 5.504850 -6.682148 -2.341969 19.043175 11.351700 0.000000 0.000000 0.000000 -2.203219 1.527853 0.817584 3.019738 1.809510 -9.933305 1.675663 4.567155 0.981964 -51.138835 -31.500211 -46.163770 0.565845 -69.874632 1.656944 0.000000 0.000000 0.000000 -1.754256 0.812720 1.036880 -12.939119 -2.014350 -1.901217 -8.809201 -0.690613 -1.993485 -107.207339 38.397070 126.190040 -3.908467 22.136201 2.076736 0.000000 0.000000 0.000000 
-1.104477 100.025459 -22.002506 0.000000 0.000000 0.000000 28.112606 -46.501079 8.383889 -71.261802 -0.157319 5.677906 60.176091 -4.572075 1.049548 3.283053 -5.638574 -4.889258 -8.960415 -0.495386 3.579433 0.000000 0.000000 0.000000 26.864104 -50.936470 9.422956 -37.423996 -21.518245 -15.741120 45.688126 -10.271878 6.575754 -12.262193 -6.249997 25.062725 -6.732698 1.284350 -0.469344 0.000000 0.000000 0.000000 34.235278 -50.312516 13.356461 0.161762 9.030966 0.023633 -1.726468 3.689220 0.463417 1.468026 -0.409138 0.708789 0.000000 0.000000 0.000000 0.525737 1.226042 1.184784 10.508081 5.002466 -6.044984 -2.041159 18.029480 11.548918 0.000000 0.000000 0.000000 -2.123913 2.123891 0.833042 2.822222 1.026639 -10.246699 1.728397 4.281277 0.924666 -51.180674 -31.978365 -45.762346 -0.178020 -70.643281 0.959381 0.000000 0.000000 0.000000 -1.404440 1.541302 1.171968 -13.174953 -2.413585 -1.115420 -8.976722 -0.790950 -2.292618 -107.205891 38.599390 125.919223 -3.502124 21.608961 1.732056 0.000000 0.000000 0.000000 
-0.756105 99.440567 -28.670498 0.000000 0.000000 0.000000 29.336322 -49.949573 9.557424 -68.203803 0.803335 4.878551 60.580807 -5.504084 1.615839 0.056943 -7.854907 -2.957071 -11.076403 -0.812367 4.048663 0.000000 0.000000 0.000000 28.191561 -54.547489 10.721654 -38.621462 -22.348948 -15.690331 46.982395 -9.785000 6.682779 -10.957175 -6.420359 23.790051 -8.603989 1.382215 -1.561932 0.000000 0.000000 0.000000 35.176249 -52.548617 14.093851 0.516509 9.954692 0.532088 -1.719988 4.389071 0.580987 0.941650 -0.134223 0.761240 0.000000 0.000000 0.000000 0.531063 1.836819 1.224979 10.166979 4.526105 -5.395802 -1.816373 17.036163 11.717673 0.000000 0.000000 0.000000 -2.089700 2.704642 0.885009 2.671265 0.389355 -10.644181 1.678207 4.138424 0.973763 -51.384838 -32.427477 -45.220326 -1.232697 -71.482813 -0.037187 0.000000 0.000000 0.000000 -1.136484 2.269271 1.340773 -13.393642 -2.848641 -0.481352 -8.785382 -0.933932 -2.516582 -106.970434 38.359544 125.403585 -3.210555 21.835015 1.423142 0.000000 0.000000 0.000000 
-0.871808 98.026566 -35.470539 0.000000 0.000000 0.000000 30.570533 -53.542519 11.219207 -66.959678 1.568638 5.433645 61.167056 -5.437507 1.271041 -2.826325 -8.772876 0.744173 -9.948395 -0.611641 3.394060 0.000000 0.000000 0.000000 29.380755 -57.873456 12.200960 -36.588374 -21.025310 -16.415125 48.615210 -9.901908 6.450870 -9.928648 -9.048092 21.255093 -7.664743 1.251660 -1.996153 0.000000 0.000000 0.000000 35.315531 -54.667936 14.473968 0.976005 10.794658 0.865886 -1.789438 4.885940 0.731152 0.942628 0.130877 0.469683 0.000000 0.000000 0.000000 0.443649 2.286529 1.300215 9.827169 4.134228 -4.845778 -1.604228 16.344467 11.753602 0.000000 0.000000 0.000000 -2.105313 3.098762 0.941554 2.593524 -0.001030 -11.082814 1.682006 4.088707 1.152551 -51.700642 -32.764001 -44.718345 -2.350285 -71.923244 -1.109395 0.000000 0.000000 0.000000 -0.999053 2.822522 1.534775 -13.528419 -3.162278 -0.197887 -8.258499 -1.000203 -2.652959 -106.538199 37.683923 124.735073 -3.101867 22.626281 1.273928 0.000000 0.000000 0.000000 
-1.182987 95.838875 -42.342731 0.000000 0.000000 0.000000 31.506191 -56.779998 13.022090 -67.945930 1.845205 7.632239 62.082315 -4.524734 0.110464 -5.325620 -8.688872 4.502720 -5.943708 -0.046498 1.745803 0.000000 0.000000 0.000000 30.503741 -60.681306 13.845605 -31.605778 -17.114588 -18.307171 48.902013 -9.756250 5.287535 -8.197682 -13.399780 19.734310 -5.475737 1.007517 -1.718341 0.000000 0.000000 0.000000 34.815725 -56.646720 14.729501 1.482529 11.475090 0.796315 -1.898479 5.085979 0.845714 1.357957 0.225171 0.334531 0.000000 0.000000 0.000000 0.297158 2.501250 1.419681 9.611277 3.861632 -4.470599 -1.320271 16.068845 11.656378 0.000000 0.000000 0.000000 -2.127784 3.232082 0.997927 2.605022 -0.015787 -11.494910 1.755459 3.880564 1.322424 -52.178749 -33.096259 -44.549656 -3.119316 -71.891935 -1.845038 0.000000 0.000000 0.000000 -1.053697 3.084479 1.694240 -13.590746 -3.186942 -0.235599 -7.594359 -1.062068 -2.654947 -106.097659 36.653360 123.931733 -3.166885 23.556324 1.353795 0.000000 0.000000 0.000000 
-1.490419 93.296700 -48.616009 0.000000 0.000000 0.000000 31.849018 -59.357144 14.558396 -70.470333 0.968545 10.827376 64.025421 -3.932361 -0.911800 -6.551891 -8.173195 5.902074 -2.403939 0.475676 0.048997 0.000000 0.000000 0.000000 31.890440 -62.716395 15.833620 -24.310544 -10.990503 -21.553089 46.339374 -8.539092 2.749441 -4.720155 -18.277791 21.407903 -3.522485 0.779661 -1.030753 0.000000 0.000000 0.000000 34.025742 -58.274368 15.107306 1.997433 11.994427 0.261938 -2.011861 5.039024 0.893207 1.536617 0.048594 0.428041 0.000000 0.000000 0.000000 0.067090 2.494109 1.536689 9.544416 3.712786 -4.316199 -0.878085 16.158445 11.459268 0.000000 0.000000 0.000000 -2.172767 3.166997 1.038013 2.692081 0.333169 -11.838493 1.637681 3.569695 1.510192 -52.769898 -33.492946 -44.919596 -3.386081 -71.533473 -2.064980 0.000000 0.000000 0.000000 -1.288386 3.091175 1.756027 -13.625157 -2.912692 -0.435460 -6.778844 -1.276041 -2.567946 -105.967612 35.483444 123.112302 -3.352033 24.190338 1.635671 0.000000 0.000000 0.000000 
